<svg xmlns="http://www.w3.org/2000/svg" viewBox="0 0 806 599.08">
  <defs>
    <style>
      .cls-1 {
        fill: #45e51f;
      }
    </style>
  </defs>
  <g id="Layer_2" data-name="Layer 2">
    <g id="Layer_1-2" data-name="Layer 1">
      <path class="mainColor" d="M801.3,418.6c-2.9-15.5-17.7-102.5-32-144.6-9.4-27.7-13.1-53-17-64.9-12-35.7-33-65.7-33-65.7s-9.5-13.1-10.1-16.3-4.7-8.6-4.7-8.6-17.4-5.7-62.3-5.7-53.7,5-53.7,5a22.51,22.51,0,0,1-5.9,4.8c-3.5,1.8-11.7,1.7-11.7,1.7H537.5a1,1,0,0,0-.9.3,5.3,5.3,0,0,0-.6,2H269.9a7.13,7.13,0,0,0-.6-2,1.06,1.06,0,0,0-.9-.3H235s-8.2.2-11.7-1.7a20.51,20.51,0,0,1-5.9-4.8s-8.8-5-53.7-5-62.3,5.7-62.3,5.7-4.1,5.3-4.7,8.6-10.1,16.3-10.1,16.3-21,30-33,65.7c-4,11.9-7.7,37.2-17,64.9C22.3,316.1,7.5,403.1,4.6,418.6.3,441.8,0,508.8,0,508.8s4.5,53.4,36.2,74.9,56.7,14,56.7,14,33.1-8.2,57.8-41.9,56.6-129.2,56.6-129.2a24.5,24.5,0,0,1,5.7-5.3,15.79,15.79,0,0,1,6.3-2.6h2a76.35,76.35,0,0,0,106.78.06l74.94,0,74.94,0a76.35,76.35,0,0,0,106.78-.06h2a15.79,15.79,0,0,1,6.3,2.6,24.5,24.5,0,0,1,5.7,5.3s31.9,95.4,56.6,129.2,57.8,41.9,57.8,41.9,25,7.5,56.7-14S806,508.8,806,508.8,805.7,441.8,801.3,418.6Z"/>
    </g>
  </g>
</svg>
